<svg xmlns="http://www.w3.org/2000/svg" width="32" height="32" viewBox="0 0 32 32" id="stop">
  <path fill="#ffffff" d="M16 0C7.163 0 0 7.163 0 16s7.163 16 16 16 16-7.163 16-16S24.837 0 16 0zm0 31C7.716 31 1 24.284 1 16 1 7.716 7.716 1 16 1s15 6.716 15 15c0 8.284-6.716 15-15 15z"></path>
  <path fill="#ffffff" d="M22 8H10a2 2 0 0 0-2 2v12a2 2 0 0 0 2 2h12a2 2 0 0 0 2-2V10a2 2 0 0 0-2-2zm1 13.2a1.8 1.8 0 0 1-1.8 1.8H10.8A1.8 1.8 0 0 1 9 21.2V10.8A1.8 1.8 0 0 1 10.8 9h10.4a1.8 1.8 0 0 1 1.8 1.8v10.4z"></path>
</svg>
